<svg height="542" width="720" xmlns="http://www.w3.org/2000/svg">
<rect height="542" fill="#555" width="720"></rect>
<text fill="#7f7" font-family="Courier New" font-size="12" xml:space="preserve">
<tspan x="10" y="26">7 megabytes installed</tspan>
<tspan x="10" y="42"></tspan>
<tspan x="10" y="58">node_modules</tspan>
<tspan x="10" y="74">└─┬ banking@1.0.1 </tspan>
<tspan x="10" y="90">  ├─┬ debug@2.6.4 </tspan>
<tspan x="10" y="106">  │ └── ms@0.7.3 </tspan>
<tspan x="10" y="122">  ├─┬ superagent@2.3.0 </tspan>
<tspan x="10" y="138">  │ ├── component-emitter@1.2.1 </tspan>
<tspan x="10" y="154">  │ ├── cookiejar@2.1.1 </tspan>
<tspan x="10" y="170">  │ ├── extend@3.0.0 </tspan>
<tspan x="10" y="186">  │ ├─┬ form-data@1.0.0-rc4 </tspan>
<tspan x="10" y="202">  │ │ ├── async@1.5.2 </tspan>
<tspan x="10" y="218">  │ │ ├─┬ combined-stream@1.0.5 </tspan>
<tspan x="10" y="234">  │ │ │ └── delayed-stream@1.0.0 </tspan>
<tspan x="10" y="250">  │ │ └─┬ mime-types@2.1.15 </tspan>
<tspan x="10" y="266">  │ │   └── mime-db@1.27.0 </tspan>
<tspan x="10" y="282">  │ ├── formidable@1.1.1 </tspan>
<tspan x="10" y="298">  │ ├── methods@1.1.2 </tspan>
<tspan x="10" y="314">  │ ├── mime@1.3.4 </tspan>
<tspan x="10" y="330">  │ ├── qs@6.4.0 </tspan>
<tspan x="10" y="346">  │ └─┬ readable-stream@2.2.9 </tspan>
<tspan x="10" y="362">  │   ├── buffer-shims@1.0.0 </tspan>
<tspan x="10" y="378">  │   ├── core-util-is@1.0.2 </tspan>
<tspan x="10" y="394">  │   ├── inherits@2.0.3 </tspan>
<tspan x="10" y="410">  │   ├── isarray@1.0.0 </tspan>
<tspan x="10" y="426">  │   ├── process-nextick-args@1.0.7 </tspan>
<tspan x="10" y="442">  │   ├── string_decoder@1.0.0 </tspan>
<tspan x="10" y="458">  │   └── util-deprecate@1.0.2 </tspan>
<tspan x="10" y="474">  └─┬ xml2js@0.4.17 </tspan>
<tspan x="10" y="490">    ├── sax@1.2.2 </tspan>
<tspan x="10" y="506">    └─┬ xmlbuilder@4.2.1 </tspan>
<tspan x="10" y="522">      └── lodash@4.17.4</tspan>
</text>
</svg>
